<svg width="30" height="30" viewBox="0 0 30 30" fill="none" xmlns="http://www.w3.org/2000/svg">
<circle cx="15" cy="15" r="15" fill="url(#paint0_linear_1901_872)"/>
<path d="M20.2208 9.07818L7.66201 13.9211C6.80493 14.2653 6.80989 14.7434 7.50476 14.9566L10.7291 15.9625L18.1893 11.2556C18.542 11.041 18.8643 11.1564 18.5994 11.3916L12.5552 16.8465H12.5538L12.5552 16.8472L12.3328 20.1707C12.6586 20.1707 12.8024 20.0212 12.9851 19.8448L14.5513 18.3219L17.8089 20.7281C18.4096 21.0589 18.8409 20.8889 18.9904 20.1721L21.1288 10.0939C21.3477 9.21631 20.7938 8.81893 20.2208 9.07818V9.07818Z" fill="white"/>
<defs>
<linearGradient id="paint0_linear_1901_872" x1="15" y1="0" x2="15" y2="30" gradientUnits="userSpaceOnUse">
<stop stop-color="#F9934C"/>
<stop offset="1" stop-color="#F27625"/>
</linearGradient>
</defs>
</svg>
