<svg width="30" height="30" viewBox="0 0 30 30" fill="none" xmlns="http://www.w3.org/2000/svg">
<circle cx="15" cy="15" r="15" fill="url(#paint0_linear_1901_881)"/>
<path fill-rule="evenodd" clip-rule="evenodd" d="M14.0944 20.4H15.0944C15.0944 20.4 15.3944 20.35 15.5444 20.2C15.6944 20.05 15.6944 19.75 15.6944 19.75C15.6944 19.75 15.6944 18.45 16.2944 18.25C16.8944 18.05 17.6944 19.55 18.4944 20.1C19.0944 20.55 19.5444 20.45 19.5444 20.45L21.7444 20.4C21.7444 20.4 22.8944 20.35 22.3444 19.4C22.2944 19.35 22.0444 18.75 20.6944 17.5C19.2944 16.2 19.4944 16.45 21.1444 14.2C22.1444 12.85 22.5444 12.05 22.4444 11.65C22.3444 11.3 21.5944 11.4 21.5944 11.4H19.0944C19.0944 11.4 18.8944 11.35 18.7944 11.45C18.6444 11.55 18.5944 11.7 18.5944 11.7C18.5944 11.7 18.1944 12.75 17.6944 13.65C16.5944 15.5 16.1444 15.6 15.9944 15.5C15.5944 15.25 15.6944 14.4 15.6944 13.85C15.6944 12.05 15.9944 11.3 15.1444 11.1C14.8944 11.05 14.6944 11 13.9944 11C13.0944 11 12.3444 11 11.9444 11.2C11.6444 11.35 11.4444 11.65 11.5944 11.65C11.7444 11.65 12.1444 11.75 12.3444 12C12.5444 12.45 12.5444 13.2 12.5444 13.2C12.5444 13.2 12.6944 15.35 12.1944 15.6C11.8444 15.8 11.3944 15.4 10.3944 13.7C9.89444 12.85 9.49444 11.85 9.49444 11.85C9.49444 11.85 9.44444 11.65 9.29444 11.55C9.14444 11.45 8.89444 11.4 8.89444 11.4H6.54444C6.54444 11.4 6.19444 11.4 6.04444 11.55C5.94444 11.7 6.04444 11.95 6.04444 11.95C6.04444 11.95 7.89444 16.25 9.99444 18.45C11.9444 20.55 14.0944 20.4 14.0944 20.4V20.4Z" fill="white"/>
<defs>
<linearGradient id="paint0_linear_1901_881" x1="15" y1="0" x2="15" y2="30" gradientUnits="userSpaceOnUse">
<stop stop-color="#F9934C"/>
<stop offset="1" stop-color="#F27625"/>
</linearGradient>
</defs>
</svg>
