<svg width="30" height="30" viewBox="0 0 30 30" fill="none" xmlns="http://www.w3.org/2000/svg">
<circle cx="15" cy="15" r="15" fill="url(#paint0_linear_1901_876)"/>
<path d="M21.8782 10.4687C19.6344 6.99989 15.0533 5.96863 11.5006 8.12489C8.04134 10.2812 6.91943 14.9687 9.16324 18.4375L9.35023 18.7187L8.60229 21.5312L11.4071 20.7812L11.6875 20.9687C12.9029 21.625 14.2118 22 15.5207 22C16.9231 22 18.3255 21.625 19.5409 20.875C23.0001 18.625 24.0285 14.0312 21.8782 10.4687V10.4687ZM19.9149 17.6875C19.5409 18.25 19.0734 18.625 18.419 18.7187C18.045 18.7187 17.5776 18.9062 15.7077 18.1562C14.1183 17.4062 12.8094 16.1875 11.8745 14.7812C11.3136 14.1249 11.0331 13.2812 10.9396 12.4374C10.9396 11.6874 11.2201 11.0312 11.6875 10.5624C11.8745 10.3749 12.0615 10.2812 12.2485 10.2812H12.716C12.9029 10.2812 13.0899 10.2812 13.1834 10.6562C13.3704 11.1249 13.8379 12.2499 13.8379 12.3437C13.9314 12.4374 13.9314 12.6249 13.8379 12.7187C13.9314 12.9062 13.8379 13.0937 13.7444 13.1874C13.6509 13.2812 13.5574 13.4687 13.4639 13.5624C13.2769 13.6562 13.1834 13.8437 13.2769 14.0312C13.6509 14.5937 14.1183 15.1562 14.5858 15.625C15.1468 16.0937 15.7077 16.4687 16.3622 16.75C16.5491 16.8437 16.7361 16.8437 16.8296 16.6562C16.9231 16.4687 17.3906 16 17.5776 15.8125C17.7645 15.625 17.858 15.625 18.045 15.7187L19.5409 16.4687C19.7279 16.5625 19.9149 16.6562 20.0084 16.75C20.1019 17.0312 20.1019 17.4062 19.9149 17.6875V17.6875Z" fill="white"/>
<defs>
<linearGradient id="paint0_linear_1901_876" x1="15" y1="0" x2="15" y2="30" gradientUnits="userSpaceOnUse">
<stop stop-color="#F9934C"/>
<stop offset="1" stop-color="#F27625"/>
</linearGradient>
</defs>
</svg>
