<svg width="70" height="70" viewBox="0 0 70 70" fill="none" xmlns="http://www.w3.org/2000/svg">
<path d="M65.7185 66.5836H4.28154C2.48337 66.5836 1.02539 65.1256 1.02539 63.3274V6.28154C1.02539 4.48283 2.48337 3.02539 4.28154 3.02539H65.7185C67.5172 3.02539 68.9746 4.48283 68.9746 6.28154V63.3274C68.9746 65.1256 67.5166 66.5836 65.7185 66.5836Z" fill="white"/>
<path opacity="0.08" d="M65.7188 3.02539H60.9336C62.7318 3.02539 64.1897 4.48283 64.1897 6.28154V63.3274C64.1897 65.1256 62.7318 66.5836 60.9336 66.5836H65.7188C67.5169 66.5836 68.9749 65.1256 68.9749 63.3274V6.28154C68.9749 4.48283 67.5169 3.02539 65.7188 3.02539Z" fill="black"/>
<path d="M1.02539 15.2569H68.9746V6.28154C68.9746 4.48283 67.5166 3.02539 65.7185 3.02539H4.28154C2.48337 3.02539 1.02539 4.48283 1.02539 6.28154V15.2569Z" fill="#D04848"/>
<path opacity="0.08" d="M65.7188 3.02539H60.9336C62.7318 3.02539 64.1897 4.48283 64.1897 6.28154V15.2569H68.9749V6.28154C68.9749 4.48283 67.5169 3.02539 65.7188 3.02539Z" fill="black"/>
<path d="M11.5949 9.14095C11.5949 10.474 10.5145 11.5549 9.18152 11.5549C7.84851 11.5549 6.76758 10.474 6.76758 9.14095C6.76758 7.80794 7.84851 6.72754 9.18152 6.72754C10.5145 6.72754 11.5949 7.80794 11.5949 9.14095Z" fill="#EC9939"/>
<path d="M19.7648 9.14095C19.7648 10.474 18.6839 11.5549 17.3509 11.5549C16.0179 11.5549 14.9375 10.474 14.9375 9.14095C14.9375 7.80794 16.0179 6.72754 17.3509 6.72754C18.6839 6.72754 19.7648 7.80794 19.7648 9.14095Z" fill="#EC9939"/>
<path d="M27.9348 9.14095C27.9348 10.474 26.8544 11.5549 25.5214 11.5549C24.1884 11.5549 23.1074 10.474 23.1074 9.14095C23.1074 7.80794 24.1884 6.72754 25.5214 6.72754C26.8544 6.72754 27.9348 7.80794 27.9348 9.14095Z" fill="#EC9939"/>
<path d="M38.4397 52.8706L33.5835 57.7274C29.4035 61.9074 22.6022 61.9074 18.4222 57.7274C14.2421 53.5473 14.2421 46.7461 18.4222 42.566L23.2789 37.7093C27.459 33.5292 34.2596 33.5292 38.4397 37.7093C39.0934 38.363 39.0934 39.4231 38.4397 40.0767C37.786 40.7299 36.7265 40.7299 36.0728 40.0767C33.1979 37.2019 28.5207 37.2019 25.6458 40.0767L20.7896 44.9329C17.9148 47.8078 17.9148 52.485 20.7896 55.3599C23.6639 58.2342 28.3412 58.2342 31.216 55.3599L36.0728 50.5032C36.7265 49.8495 37.786 49.8495 38.4397 50.5032C39.0939 51.1568 39.0939 52.2169 38.4397 52.8706Z" fill="#EC9939"/>
<path opacity="0.08" d="M37.7038 50.0747C37.637 50.3748 37.4885 50.66 37.2552 50.894L32.3984 55.7507C28.2184 59.9302 21.4171 59.9302 17.2371 55.7507C16.8825 55.3955 16.5599 55.0206 16.2656 54.6313C16.781 55.7528 17.4993 56.8038 18.4221 57.7272C22.6022 61.9068 29.4034 61.9068 33.5835 57.7272L38.4402 52.8705C39.0939 52.2168 39.0939 51.1567 38.4402 50.503C38.2282 50.291 37.9735 50.1489 37.7038 50.0747Z" fill="black"/>
<path d="M51.5787 39.5733L46.7219 44.43C42.5419 48.6095 35.7406 48.6095 31.5606 44.43C30.9069 43.7763 30.9069 42.7162 31.5606 42.0625C32.2143 41.4088 33.2744 41.4088 33.9281 42.0625C36.8029 44.9373 41.4802 44.9373 44.3545 42.0625L49.2112 37.2058C52.086 34.331 52.086 29.6537 49.2112 26.7794C46.3369 23.9046 41.6596 23.9046 38.7848 26.7794L33.9281 31.6361C33.2744 32.2898 32.2143 32.2898 31.5606 31.6361C30.9069 30.9824 30.9069 29.9223 31.5606 29.2686L36.4173 24.4119C40.5974 20.2318 47.3986 20.2318 51.5787 24.4119C55.7587 28.592 55.7587 35.3932 51.5787 39.5733Z" fill="#EC9939"/>
<path opacity="0.08" d="M51.5786 24.4118C49.3553 22.1879 46.3902 21.1476 43.4721 21.2897C45.1058 21.7837 46.6439 22.6739 47.9331 23.9626C49.4082 25.4377 50.3599 27.2396 50.7941 29.1371C51.7837 31.5024 51.4889 34.2811 49.9086 36.3987C49.4103 37.3813 48.7534 38.3037 47.9331 39.124L43.0764 43.9807C41.1196 45.9369 38.5887 46.9773 36.0215 47.1023C39.6862 48.211 43.831 47.3207 46.7219 44.4298L51.5786 39.5731C55.7587 35.393 55.7587 28.5918 51.5786 24.4118Z" fill="black"/>
<path d="M36.8691 10.1665H61.8427C62.4094 10.1665 62.8681 9.70775 62.8681 9.14111C62.8681 8.57501 62.4094 8.11572 61.8427 8.11572H36.8691C36.3025 8.11572 35.8438 8.57501 35.8438 9.14111C35.8438 9.70775 36.3025 10.1665 36.8691 10.1665Z" fill="#EC9939"/>
<path d="M65.7185 2H4.28154C1.91193 2 0 3.92955 0 6.28154V63.3274C0 65.6885 1.92101 67.609 4.28154 67.609H65.7185C68.0795 67.609 70 65.688 70 63.3274V6.28154C70 3.92047 68.079 2 65.7185 2ZM65.7185 65.5582H4.28154C3.05161 65.5582 2.05078 64.5574 2.05078 63.3274V16.2823H7.7668C8.33344 16.2823 8.79219 15.823 8.79219 15.2569C8.79219 14.6903 8.33344 14.2315 7.7668 14.2315H2.05078V6.28154C2.05078 5.0484 3.05481 4.05078 4.28154 4.05078H65.7185C66.9484 4.05078 67.9492 5.05161 67.9492 6.28154V14.2315H11.5949C11.0288 14.2315 10.5695 14.6903 10.5695 15.2569C10.5695 15.823 11.0288 16.2823 11.5949 16.2823H67.9492V63.3274C67.9492 64.5574 66.9484 65.5582 65.7185 65.5582Z" fill="#4F4365"/>
<path d="M35.6926 23.6866L30.8364 28.5433C29.7811 29.5986 29.7811 31.3055 30.8364 32.3608C31.8885 33.4134 33.6012 33.4134 34.6538 32.3608L39.51 27.5041C41.9854 25.0292 46.0122 25.0292 48.487 27.5041C50.9618 29.9789 50.9618 34.0057 48.487 36.4805L43.6303 41.3372C42.4335 42.534 40.8398 43.1931 39.1421 43.1931C37.4443 43.1931 35.8507 42.534 34.6538 41.3372C33.6012 40.2851 31.8885 40.2851 30.8364 41.3372C29.7838 42.3898 29.7838 44.102 30.8364 45.1547C33.0517 47.3699 36.0013 48.5903 39.1421 48.5903C42.2829 48.5903 45.2325 47.3699 47.4477 45.1547L52.3044 40.2979C56.884 35.7184 56.884 28.2667 52.3044 23.6866C47.7244 19.1071 40.2727 19.1071 35.6926 23.6866ZM50.8545 38.848L45.9978 43.7042C44.1697 45.5322 41.7349 46.5389 39.1421 46.5389C36.5492 46.5389 34.1144 45.5322 32.2864 43.7047C32.0338 43.4515 32.0338 43.0403 32.2864 42.7872C32.5395 42.5346 32.9507 42.5346 33.2039 42.7872C34.7874 44.3712 36.8963 45.2438 39.1421 45.2438C41.3878 45.2438 43.4968 44.3712 45.0808 42.7872L49.9375 37.9305C53.2113 34.6562 53.2113 29.3284 49.937 26.0541C46.6632 22.7798 41.3349 22.7798 38.0606 26.0541L33.2039 30.9108C32.9507 31.1634 32.5395 31.1634 32.2864 30.9108C32.0332 30.6571 32.0332 30.247 32.2864 29.9933L37.1431 25.1371C38.9712 23.309 41.4059 22.3023 43.9988 22.3023C46.5916 22.3023 49.0264 23.309 50.8545 25.1371C52.6826 26.9647 53.6893 29.3994 53.6893 31.9923C53.6887 34.5851 52.682 37.0199 50.8545 38.848Z" fill="#4F4365"/>
<path d="M35.347 49.7779L30.4903 54.6346C29.294 55.8314 27.6998 56.4904 26.002 56.4904C24.3043 56.4904 22.7106 55.8314 21.5138 54.6346C20.3175 53.4378 19.658 51.8441 19.658 50.1464C19.658 48.4486 20.317 46.855 21.5138 45.6581L26.3705 40.8014C28.8454 38.3266 32.8722 38.3271 35.347 40.8014C36.4017 41.8567 38.1097 41.8567 39.1644 40.8014C40.2171 39.7493 40.2171 38.0366 39.1644 36.984C34.5849 32.4044 27.1326 32.4044 22.5531 36.984L17.6964 41.8407C13.1168 46.4202 13.1168 53.8725 17.6964 58.452C19.6008 60.3565 22.1264 61.5544 24.8074 61.8257C25.2015 61.8657 25.5962 61.8855 25.9903 61.8855C28.2371 61.8855 30.4571 61.243 32.3461 60.0307C32.8225 59.7247 32.9608 59.0902 32.6548 58.6138C32.3488 58.1375 31.7143 57.9991 31.2379 58.3052C27.4312 60.7495 22.3459 60.2011 19.1469 57.0021C15.3668 53.222 15.3668 47.0713 19.1469 43.2912L24.0036 38.4345C27.7837 34.6544 33.9344 34.6544 37.7145 38.4345C37.9676 38.6876 37.9676 39.0988 37.7145 39.3515C37.4618 39.6046 37.0517 39.6057 36.7975 39.3515C33.5232 36.0771 28.1954 36.0771 24.9206 39.3515L20.0644 44.2082C18.4804 45.7922 17.6077 47.9012 17.6077 50.1469C17.6077 52.3921 18.4804 54.5011 20.0644 56.0851C21.6479 57.6691 23.7569 58.5412 26.0026 58.5412C28.2478 58.5412 30.3567 57.6691 31.9408 56.0851L36.7975 51.2284C37.0517 50.9747 37.4618 50.9752 37.7145 51.2284C37.9676 51.4815 37.9676 51.8927 37.7145 52.1459L33.9488 55.9115C33.5488 56.3121 33.5488 56.9609 33.9488 57.3615C34.3494 57.762 34.9988 57.762 35.3988 57.3615L39.165 53.5958C40.2171 52.5432 40.2171 50.8305 39.165 49.7784C38.1097 48.7231 36.4023 48.7231 35.347 49.7779Z" fill="#4F4365"/>
</svg>
