<svg width="85" height="37" viewBox="0 0 85 37" fill="none" xmlns="http://www.w3.org/2000/svg">
<path d="M25.95 14.5H19.95L18.65 22.5H24.65L24.45 23.5H18.45L16.8 33.5H15.8L17.45 23.5H7.45L5.8 33.5H4.8L6.45 23.5H0.5L0.65 22.5H6.65L7.95 14.5H1.95L2.1 13.5H8.15L9.8 3.5H10.8L9.15 13.5H19.15L20.8 3.5H21.8L20.15 13.5H26.1L25.95 14.5ZM17.65 22.5L18.95 14.5H8.95L7.65 22.5H17.65ZM54.2152 31.6C51.9486 34.8667 48.8319 36.5 44.8652 36.5C40.8986 36.5 37.7819 34.8667 35.5152 31.6C33.2486 28.3333 32.1152 23.9667 32.1152 18.5C32.1152 13.0333 33.2486 8.66667 35.5152 5.4C37.7819 2.13333 40.8986 0.499998 44.8652 0.499998C48.8319 0.499998 51.9486 2.13333 54.2152 5.4C56.4819 8.66667 57.6152 13.0333 57.6152 18.5C57.6152 23.9667 56.4819 28.3333 54.2152 31.6ZM36.2652 31.05C38.3986 34.0833 41.2652 35.6 44.8652 35.6C48.4652 35.6 51.3152 34.0833 53.4152 31.05C55.5486 27.9833 56.6152 23.8 56.6152 18.5C56.6152 13.2 55.5486 9.03333 53.4152 6C51.3152 2.93333 48.4652 1.4 44.8652 1.4C41.2652 1.4 38.3986 2.93333 36.2652 6C34.1652 9.03333 33.1152 13.2 33.1152 18.5C33.1152 23.8 34.1652 27.9833 36.2652 31.05ZM74.0828 15.5C77.2495 15.6333 79.8495 16.6667 81.8828 18.6C83.9495 20.5333 84.9828 23 84.9828 26C84.9828 29.1 83.8995 31.6333 81.7328 33.6C79.5995 35.5333 76.9328 36.5 73.7328 36.5C71.1661 36.5 68.9328 35.95 67.0328 34.85C65.1328 33.75 63.7495 32.25 62.8828 30.35L63.6828 29.85C64.4495 31.6167 65.6995 33.0167 67.4328 34.05C69.1661 35.0833 71.2661 35.6 73.7328 35.6C76.7995 35.6 79.2661 34.7 81.1328 32.9C83.0328 31.0667 83.9828 28.7667 83.9828 26C83.9828 23.2333 83.0161 20.95 81.0828 19.15C79.1828 17.3167 76.6495 16.4 73.4828 16.4H73.1828L72.7828 15.8L81.8828 1.9H63.4828V0.999998H82.9828V1.9L74.0828 15.5Z" fill="#D2D2D2"/>
</svg>
