<svg width="70" height="70" viewBox="0 0 70 70" fill="none" xmlns="http://www.w3.org/2000/svg">
<path d="M21.5555 20.8818C21.5555 20.8818 8.93026 16.6896 1.25711 28.0198C0.542473 29.0751 1.64936 30.4255 2.82324 29.9295C5.68096 28.722 9.72118 27.7785 13.2603 29.7739C19.5522 33.3215 21.5555 20.8818 21.5555 20.8818Z" fill="#D04848"/>
<path d="M49.1204 48.4458C49.1204 48.4458 53.3125 61.0711 41.9824 68.7442C40.927 69.4589 39.5767 68.352 40.0727 67.1781C41.2802 64.3204 42.2237 60.2802 40.2283 56.741C36.6807 50.4492 49.1204 48.4458 49.1204 48.4458Z" fill="#D04848"/>
<path d="M14.1756 42.5767C-3.91328 49.599 3.96905 66.032 3.96905 66.032C3.96905 66.032 20.402 73.9144 27.4244 55.8254L23.6838 46.3171L14.1756 42.5767Z" fill="#EC9939"/>
<path opacity="0.2" d="M8.4145 61.5868C8.21011 59.4467 8.31798 56.0912 10.1375 52.7049C11.6754 49.8425 14.351 47.2245 18.1082 44.8994L23.746 46.2544L25.1009 51.8921C22.7539 55.6847 20.1076 58.3754 17.2118 59.9079C13.8569 61.6833 10.5297 61.7861 8.4145 61.5868Z" fill="white"/>
<path d="M34.4299 50.1335C31.424 53.6739 27.4244 55.8254 27.4244 55.8254C25.2879 54.2488 22.9199 52.2332 20.3439 49.6573C17.7678 47.0812 15.7523 44.7134 14.1758 42.5768C14.1758 42.5768 16.3272 38.5772 19.8677 35.5713L34.4299 50.1335Z" fill="white"/>
<path d="M66.4506 23.7447L66.4633 23.7131L60.7044 9.29666L46.2878 3.5376L46.2562 3.55031C37.6487 6.9325 26.542 14.3947 13.2598 29.7741C13.2598 29.7741 13.2373 35.8706 23.6839 46.3171C34.1304 56.7636 40.2269 56.7412 40.2269 56.7412C55.6063 43.4589 63.0683 32.3521 66.4506 23.7447Z" fill="white"/>
<path d="M54.3534 15.6484C58.0711 19.3661 62.2773 22.0858 66.4646 23.7129C71.7316 10.2796 67.0575 2.94438 67.0575 2.94438C67.0575 2.94438 59.7224 -1.72954 46.2891 3.53734C47.916 7.72466 50.6357 11.9309 54.3534 15.6484Z" fill="#D04848"/>
<path opacity="0.08" d="M63.218 16.1339L63.2328 16.0974C65.3562 10.6814 66.0846 6.12187 66.1326 2.47705C66.7446 2.74612 67.0569 2.94477 67.0569 2.94477C67.0569 2.94477 71.7308 10.2798 66.4638 23.7134L66.4511 23.745C63.0689 32.3523 55.6067 43.4591 40.2273 56.7413C40.2273 56.7413 37.7391 56.7499 33.2188 54.0334C50.7764 38.7912 59.3272 26.0353 63.218 16.1339Z" fill="black"/>
<path d="M43.7818 35.588C48.9566 35.588 53.1515 31.3931 53.1515 26.2183C53.1515 21.0436 48.9566 16.8486 43.7818 16.8486C38.6071 16.8486 34.4121 21.0436 34.4121 26.2183C34.4121 31.3931 38.6071 35.588 43.7818 35.588Z" fill="#EC9939"/>
<path d="M43.7818 30.4942C46.1433 30.4942 48.0577 28.5798 48.0577 26.2183C48.0577 23.8568 46.1433 21.9424 43.7818 21.9424C41.4203 21.9424 39.5059 23.8568 39.5059 26.2183C39.5059 28.5798 41.4203 30.4942 43.7818 30.4942Z" fill="white"/>
<path d="M14.6758 55.3254C24.6778 53.225 37.9017 40.9121 33.4955 36.5058C29.0892 32.0994 16.7764 45.3233 14.6758 55.3254Z" fill="#D04848"/>
<path d="M43.7774 36.6194C46.5543 36.6194 49.165 35.5381 51.1283 33.5747C55.1815 29.5213 55.1815 22.9262 51.1283 18.8729C49.1648 16.9093 46.5542 15.8281 43.7774 15.8281C41.0006 15.8281 38.3899 16.9094 36.4266 18.8729C32.3734 22.9262 32.3734 29.5213 36.4266 33.5747C38.3902 35.5381 41.0009 36.6194 43.7774 36.6194ZM37.8776 20.3236C39.4535 18.7478 41.549 17.8797 43.7775 17.8797C46.0063 17.8797 48.1016 18.7476 49.6775 20.3236C52.9308 23.5769 52.9308 28.8704 49.6775 32.1238C48.1017 33.6996 46.0062 34.5675 43.7775 34.5675C41.5488 34.5675 39.4536 33.6996 37.8776 32.1238C34.6242 28.8705 34.6242 23.577 37.8776 20.3236Z" fill="#4F4365"/>
<path d="M43.7792 31.5246C45.1952 31.5246 46.5263 30.9732 47.5276 29.972C49.5944 27.9051 49.5944 24.5419 47.5276 22.475C46.5264 21.4738 45.195 20.9224 43.7792 20.9224C42.363 20.9224 41.0319 21.4738 40.0306 22.475C37.9638 24.5419 37.9638 27.9051 40.0306 29.972C41.0319 30.9732 42.3633 31.5246 43.7792 31.5246ZM41.4817 23.9258C42.0953 23.3121 42.9114 22.9741 43.7794 22.9741C44.6473 22.9741 45.4634 23.3121 46.077 23.9258C47.344 25.1927 47.344 27.2542 46.077 28.5211C45.4634 29.1349 44.6473 29.4728 43.7794 29.4728C42.9114 29.4728 42.0953 29.1349 41.4817 28.5211C40.2146 27.2542 40.2146 25.1927 41.4817 23.9258Z" fill="#4F4365"/>
<path d="M45.9051 2.58936C45.9033 2.59005 45.9014 2.59046 45.8995 2.59128L45.8776 2.60016C39.7993 4.98866 33.4155 9.01726 26.9029 14.574C26.472 14.9416 26.4207 15.5893 26.7885 16.0203C27.1504 16.4444 27.8112 16.4965 28.2347 16.1348C34.2452 11.0063 40.1202 7.22418 45.7215 4.87778C46.402 6.47016 47.2131 8.00854 48.1265 9.47951C48.4257 9.9609 49.0582 10.1083 49.5394 9.80942C50.0207 9.51041 50.1683 8.87781 49.8692 8.39655C49.0315 7.04876 48.3352 5.64738 47.6717 4.20895C47.6698 4.20485 47.6356 4.12842 47.6348 4.12869C53.8106 1.88389 58.5139 1.86433 61.4227 2.2667C64.0873 2.63516 65.7502 3.4116 66.2997 3.70199C66.592 4.25516 67.3672 5.9174 67.7354 8.57948C68.1376 11.4883 68.118 16.1915 65.8734 22.3676C65.1416 22.053 64.4218 21.7116 63.7165 21.3418C61.1718 20.0081 58.8088 18.3413 56.6669 16.4285C55.0531 14.9874 53.5614 13.4166 52.2163 11.7216C51.8641 11.2778 51.2187 11.2036 50.775 11.5557C50.3461 11.896 50.2591 12.556 50.6092 12.9972C51.5476 14.1789 52.5559 15.3121 53.6231 16.3788C56.3127 19.0666 59.4143 21.4089 62.801 23.1776C62.9197 23.2397 65.1125 24.3086 65.1241 24.2807C64.4024 26.0039 63.5375 27.7682 62.5467 29.5381C62.2701 30.0325 62.4466 30.6577 62.9409 30.9345C63.4294 31.2079 64.0643 31.0277 64.3372 30.5404C65.5476 28.3779 66.5787 26.2194 67.3975 24.1354L67.4104 24.1038C67.4113 24.1015 67.4119 24.099 67.4128 24.0967C67.4134 24.0952 67.4143 24.0939 67.4149 24.0924C72.8103 10.3316 68.1201 2.71555 67.918 2.39809C67.8375 2.2719 67.7303 2.16457 67.6041 2.08418C67.2868 1.88183 59.6707 -2.80808 45.9098 2.58731C45.9083 2.58772 45.9068 2.58868 45.9051 2.58936Z" fill="#4F4365"/>
<path d="M15.1552 29.1653C17.3836 26.6357 19.6891 24.1731 22.0861 21.8026C23.1263 20.7738 24.1612 19.7838 25.1885 18.8376C25.6053 18.4538 25.6319 17.8046 25.2482 17.3879C24.8641 16.9713 24.2154 16.9445 23.7985 17.3284C22.9569 18.1038 22.1102 18.9083 21.26 19.738C20.3346 19.4993 18.4392 19.1031 16.053 19.1031C11.4925 19.1031 5.07564 20.5511 0.403634 27.45C-0.0834998 28.1693 -0.132719 29.0547 0.272383 29.8181C0.831569 30.8724 2.11633 31.3456 3.21857 30.8799C5.15329 30.0624 6.98411 29.648 8.66099 29.648C9.98061 29.648 11.1991 29.9119 12.2906 30.4329C12.4648 31.6194 13.1416 34.3632 15.7659 38.3977C14.5905 39.885 13.7977 41.1766 13.4569 41.7627C7.84162 44.0186 4.10465 47.4094 2.34957 51.847C-0.477938 58.9961 2.8955 66.1786 3.04042 66.4809C3.14146 66.6916 3.31126 66.8612 3.52195 66.9623C3.62449 67.0115 6.07397 68.172 9.51535 68.6091C10.0759 68.6803 10.5909 68.2827 10.6623 67.7205C10.7337 67.1583 10.3358 66.6449 9.77375 66.5736C7.375 66.269 5.48429 65.5647 4.74559 65.2585C4.15578 63.8281 2.08256 58.0797 4.26407 52.5852C5.76594 48.8025 8.9805 45.8592 13.8246 43.8282C13.877 43.8062 16.0913 46.6209 16.6971 47.3009C16.7256 47.3329 16.7537 47.3651 16.7822 47.3969C15.8206 49.0756 14.981 50.8331 14.3533 52.6647C14.3513 52.6705 14.3492 52.6764 14.3473 52.6822C14.0748 53.479 13.8328 54.2939 13.6677 55.1202C13.5964 55.4593 13.7012 55.8114 13.9462 56.0565C14.1859 56.2962 14.551 56.4032 14.8826 56.3351C14.8878 56.334 14.893 56.3327 14.8982 56.3317C15.4228 56.2234 15.9341 56.0879 16.4469 55.935C18.4004 55.3533 20.4928 54.4328 22.6054 53.2204C22.6127 53.2269 22.6201 53.2334 22.6275 53.2399C22.8091 53.4006 25.147 55.3946 26.1746 56.1782C23.5017 62.5585 19.2895 66.078 13.6459 66.6422C13.0822 66.6985 12.6709 67.2012 12.7272 67.7651C12.7801 68.2942 13.2261 68.6889 13.7468 68.6889C13.7809 68.6889 13.8153 68.6873 13.8501 68.6837C16.8095 68.3878 19.4704 67.357 21.7588 65.6197C24.4668 63.5637 26.6443 60.5106 28.2377 56.5471C28.8228 56.2069 30.1157 55.4135 31.6048 54.2368C35.6363 56.859 38.3794 57.537 39.5674 57.7119C41.0451 60.8077 40.1617 64.3255 39.1227 66.7843C38.8164 67.5091 38.8871 68.2966 39.3169 68.9448C39.749 69.5966 40.4946 70.0016 41.2631 70.0017C41.7182 70.0017 42.164 69.8625 42.5527 69.5995C47.2712 66.4039 50.1077 61.8406 50.7556 56.4034C51.1732 52.8981 50.5809 49.9714 50.2636 48.7418C55.0737 43.8098 59.041 38.9494 62.115 34.215C62.4236 33.7398 62.2887 33.1045 61.8133 32.7959C61.3382 32.4873 60.703 32.6222 60.3943 33.0976C57.1636 38.0734 52.9124 43.2018 47.702 48.4167C47.6715 48.4472 47.6416 48.4776 47.6111 48.5079C46.1281 49.9878 44.6128 51.4354 43.0657 52.8482C42.2955 53.5277 41.5421 54.2258 40.7725 54.906C40.4761 55.167 40.1779 55.4261 39.8797 55.685C39.3839 55.6142 38.3715 55.4045 36.8997 54.7845C35.2875 54.1054 33.7605 53.2368 32.3102 52.2616C31.9543 52.0223 28.3476 49.1994 28.3271 49.2167C30.3242 47.5383 32.2281 45.6472 33.6507 43.448C35.0787 41.2405 36.4047 37.9748 34.2162 35.7861C29.9106 31.4805 23.4764 38.4844 20.8335 41.6235C20.8181 41.6417 20.8028 41.6592 20.7875 41.6775C20.2996 41.1004 19.8239 40.5132 19.3621 39.915C17.0968 36.9741 15.8719 34.6546 15.2184 33.1032C14.5971 31.6283 14.3876 30.6148 14.3172 30.1235C14.5956 29.8025 14.8748 29.4834 15.1552 29.1653ZM48.7735 55.6313C48.3135 60.7712 45.8336 64.8989 41.4023 67.8999C41.3532 67.9331 41.3079 67.9492 41.2633 67.9492C41.1785 67.9492 41.0814 67.8922 41.0272 67.8106C40.9797 67.739 40.9755 67.6707 41.0128 67.5823C42.202 64.7678 43.1975 60.7241 41.5004 56.996C41.5374 56.9636 41.5738 56.9314 41.6108 56.8991C43.2006 55.5104 44.7665 54.0936 46.2988 52.6418C47.0531 51.9273 47.8021 51.2072 48.5414 50.4772C48.7632 51.7195 48.96 53.5455 48.7735 55.6313ZM17.7719 41.2131C18.31 41.9102 18.8678 42.5924 19.4407 43.2614C19.4552 43.2784 19.4693 43.2953 19.4839 43.3123C18.9265 44.0503 18.3982 44.8036 17.9026 45.5653C17.8859 45.5461 17.8688 45.5271 17.8523 45.5081C17.006 44.5403 16.1892 43.5462 15.4105 42.5231C15.407 42.5186 15.4039 42.5142 15.4005 42.5097C15.7175 41.9861 16.2585 41.1403 16.9885 40.1718C17.2364 40.5114 17.4942 40.8535 17.7597 41.1973C17.7637 41.2024 17.7678 41.2077 17.7719 41.2131ZM22.0093 43.4153C23.9711 41.0184 26.3306 38.5309 29.1901 37.2165C30.2495 36.7295 31.7905 36.2687 32.7604 37.2316C32.7622 37.2334 32.7642 37.2349 32.7668 37.2375C33.9091 38.3996 33.091 40.3259 32.4305 41.5096C31.2547 43.6167 29.0054 46.0892 26.0932 48.3868C24.856 49.3629 23.5569 50.2626 22.2064 51.0748C20.6343 52.0204 19.075 52.7952 17.585 53.376C17.5795 53.3782 17.574 53.3802 17.5684 53.3824C17.1289 53.5534 16.6841 53.7113 16.2346 53.8543C16.1924 53.8677 16.1498 53.882 16.1079 53.8951C16.111 53.8848 16.1146 53.8744 16.1178 53.8642C16.369 53.0626 16.6692 52.2778 17.0031 51.5073C17.5282 50.298 18.173 49.0522 18.9281 47.7965C19.8413 46.277 20.875 44.8011 22.0093 43.4153ZM29.8306 53.0139C28.8621 53.7441 28.0162 54.285 27.4927 54.6019C27.4879 54.5984 27.4833 54.595 27.4785 54.5913C26.7994 54.0747 24.4936 52.0613 24.436 52.0987C24.8819 51.8085 26.3824 50.7492 26.6896 50.518C27.1592 50.9206 29.2498 52.5902 29.8306 53.0139ZM2.41998 28.9896C2.28408 29.0469 2.15215 28.9836 2.08488 28.8564C2.02432 28.7421 2.06246 28.6594 2.10252 28.6002C6.27002 22.4463 11.9892 21.1546 16.053 21.1546C17.4283 21.1546 18.6273 21.3021 19.524 21.462C17.9215 23.0855 16.3587 24.7483 14.832 26.4428C14.2468 27.0923 13.6665 27.7461 13.0915 28.4048C13.0631 28.4374 13.0345 28.4695 13.0061 28.502C10.0285 27.1489 6.36108 27.3245 2.41998 28.9896Z" fill="#4F4365"/>
</svg>
