<svg width="72" height="37" viewBox="0 0 72 37" fill="none" xmlns="http://www.w3.org/2000/svg">
<path d="M25.95 14.5H19.95L18.65 22.5H24.65L24.45 23.5H18.45L16.8 33.5H15.8L17.45 23.5H7.45L5.8 33.5H4.8L6.45 23.5H0.5L0.65 22.5H6.65L7.95 14.5H1.95L2.1 13.5H8.15L9.8 3.5H10.8L9.15 13.5H19.15L20.8 3.5H21.8L20.15 13.5H26.1L25.95 14.5ZM17.65 22.5L18.95 14.5H8.95L7.65 22.5H17.65ZM54.2152 31.6C51.9486 34.8667 48.8319 36.5 44.8652 36.5C40.8986 36.5 37.7819 34.8667 35.5152 31.6C33.2486 28.3333 32.1152 23.9667 32.1152 18.5C32.1152 13.0333 33.2486 8.66667 35.5152 5.4C37.7819 2.13333 40.8986 0.499998 44.8652 0.499998C48.8319 0.499998 51.9486 2.13333 54.2152 5.4C56.4819 8.66667 57.6152 13.0333 57.6152 18.5C57.6152 23.9667 56.4819 28.3333 54.2152 31.6ZM36.2652 31.05C38.3986 34.0833 41.2652 35.6 44.8652 35.6C48.4652 35.6 51.3152 34.0833 53.4152 31.05C55.5486 27.9833 56.6152 23.8 56.6152 18.5C56.6152 13.2 55.5486 9.03333 53.4152 6C51.3152 2.93333 48.4652 1.4 44.8652 1.4C41.2652 1.4 38.3986 2.93333 36.2652 6C34.1652 9.03333 33.1152 13.2 33.1152 18.5C33.1152 23.8 34.1652 27.9833 36.2652 31.05ZM70.6711 0.999998H71.4211V36H70.4211V2.05L61.8711 4.95L61.6211 4.1L70.6711 0.999998Z" fill="#D2D2D2"/>
</svg>
