<svg width="70" height="70" viewBox="0 0 70 70" fill="none" xmlns="http://www.w3.org/2000/svg">
<path d="M65.9476 60.5791C65.9476 63.8346 63.3084 66.4739 60.0529 66.4739H7.00023C3.74469 66.4739 1.10547 63.8346 1.10547 60.5791V19.2695H65.9476V60.5791Z" fill="#D04848"/>
<path d="M1.10547 19.2695H11.4213V66.4739H7.00023C3.74469 66.4739 1.10547 63.8322 1.10547 60.5734V19.2695ZM65.9476 39.9214H43.8424C40.5868 39.9214 37.9476 42.5607 37.9476 45.8162V45.8278C37.9476 49.0834 40.5868 51.7226 43.8424 51.7226H65.9476C67.5754 51.7226 68.895 50.4031 68.895 48.7752V42.8688C68.895 41.2411 67.5754 39.9214 65.9476 39.9214Z" fill="#D04848"/>
<path opacity="0.08" d="M1.10547 19.2695H11.4213V66.4739H7.00023C3.74469 66.4739 1.10547 63.8322 1.10547 60.5734V19.2695ZM65.9476 39.9214H43.8424C40.5868 39.9214 37.9476 42.5607 37.9476 45.8162V45.8278C37.9476 49.0834 40.5868 51.7226 43.8424 51.7226H65.9476C67.5754 51.7226 68.895 50.4031 68.895 48.7752V42.8688C68.895 41.2411 67.5754 39.9214 65.9476 39.9214Z" fill="black"/>
<path d="M46.7881 45.8222C46.7881 47.0442 45.7984 48.035 44.5777 48.035C43.3569 48.035 42.3672 47.0443 42.3672 45.8222C42.3672 44.6002 43.3569 43.6094 44.5777 43.6094C45.7983 43.6094 46.7881 44.6002 46.7881 45.8222Z" fill="white"/>
<path d="M61.5265 26.6451H8.47393C4.40449 26.6451 1.10547 23.3461 1.10547 19.2766V19.262C1.10547 15.1926 4.40449 11.8936 8.47393 11.8936H61.5265C63.9683 11.8936 65.9476 13.8728 65.9476 16.3146V22.2239C65.9476 24.6657 63.9683 26.6451 61.5265 26.6451Z" fill="white"/>
<path d="M41.7199 5.30987L46.7911 19.2694H12.8965L36.9327 3.70138C38.6741 2.57345 41.0111 3.35876 41.7199 5.30987Z" fill="#EC9939"/>
<path opacity="0.08" d="M41.7199 5.30987L46.7911 19.2694H12.8965L36.9327 3.70138C38.6741 2.57345 41.0111 3.35876 41.7199 5.30987Z" fill="black"/>
<path d="M53.6438 5.24448L58.739 19.2702H24.6836L48.8336 3.62833C50.5833 2.49479 52.9315 3.2838 53.6438 5.24448Z" fill="#EC9939"/>
<path d="M67.0526 38.9377V16.2498C67.0526 13.2026 64.5736 10.7235 61.5263 10.7235H56.6742L54.5467 4.86002C54.0929 3.60945 53.1102 2.64969 51.8504 2.22695C50.5924 1.80477 49.2323 1.97689 48.119 2.69918L43.1438 5.92533L42.7573 4.86002C42.3035 3.60945 41.3208 2.64969 40.0611 2.22695C38.803 1.80477 37.443 1.97689 36.3296 2.69918L33.723 4.3893C33.2109 4.72125 33.0649 5.4058 33.3971 5.91795C33.7295 6.43023 34.4136 6.57598 34.9259 6.24389L37.5324 4.55377C38.077 4.20035 38.7424 4.11613 39.358 4.32258C39.9752 4.52957 40.4569 5.00029 40.6794 5.61402L41.2403 7.15977L24.3573 18.1079H16.6305L31.1802 8.67297C31.6924 8.34074 31.8382 7.65646 31.5062 7.14432C31.1738 6.63203 30.4896 6.48615 29.9774 6.81838L23.9415 10.7328C23.8953 10.7268 23.848 10.7237 23.8 10.7237H8.47369C3.80119 10.7236 0 14.5247 0 19.197V60.5791C0 64.4389 3.14029 67.5791 7 67.5791H60.0526C63.9123 67.5791 67.0526 64.4389 67.0526 60.5792V56.0844C67.0526 55.474 66.558 54.9792 65.9474 54.9792C65.3368 54.9792 64.8421 55.4741 64.8421 56.0844V60.5792C64.8421 63.2201 62.6936 65.3687 60.0526 65.3687H12.5263V32.5052C12.5263 31.8948 12.0317 31.4 11.4211 31.4C10.8105 31.4 10.3158 31.8949 10.3158 32.5052V65.3686H7C4.359 65.3686 2.21047 63.2201 2.21047 60.5791V24.931C3.76141 26.6333 5.99484 27.7029 8.47369 27.7029H61.5263C62.7694 27.7029 63.9179 27.2902 64.8421 26.595V38.7845H43.8422C39.9824 38.7845 36.8421 41.9246 36.8421 45.7843V45.8102C36.8421 49.6699 39.9824 52.81 43.8422 52.81H65.9474C68.1819 52.81 70 50.9921 70 48.7574V42.8371C70 40.9855 68.7518 39.4199 67.0526 38.9377ZM61.5263 12.9339C63.3545 12.9339 64.8421 14.4213 64.8421 16.2498V18.1079H59.3537L57.4764 12.9339H61.5263ZM61.5263 25.4924H8.47369C5.02018 25.4924 2.21047 22.6828 2.21047 19.2294V19.1972C2.21047 15.7438 5.02004 12.9342 8.47369 12.9342H20.5465L12.5677 18.1082H9.94738C9.3368 18.1082 8.84215 18.6031 8.84215 19.2134C8.84215 19.8239 9.3368 20.3187 9.94738 20.3187H12.8789C12.8901 20.3188 12.9013 20.3188 12.9127 20.3187H24.6684C24.6796 20.3188 24.6909 20.3188 24.7022 20.3187H46.7895C47.4001 20.3187 47.8948 19.8238 47.8948 19.2134C47.8948 18.603 47.4001 18.1082 46.7895 18.1082H28.42L49.3218 4.55418C49.8664 4.20076 50.5315 4.11654 51.1474 4.32299C51.7646 4.52998 52.2463 5.0007 52.4688 5.61443L57.0021 18.1083H51.2107C50.6002 18.1083 50.1055 18.6033 50.1055 19.2136C50.1055 19.824 50.6002 20.3188 51.2107 20.3188H58.5535C58.5707 20.3192 58.5878 20.3192 58.6049 20.3188H64.8421V22.177C64.8421 24.005 63.3545 25.4924 61.5263 25.4924ZM67.7895 48.7575C67.7895 49.7732 66.9632 50.5997 65.9474 50.5997H43.8422C41.2012 50.5997 39.0526 48.4511 39.0526 45.8104V45.7846C39.0526 43.1437 41.2012 40.9951 43.8422 40.9951H65.9341C65.9418 40.9952 65.9498 40.9952 65.9579 40.9951C66.9687 41.0008 67.7895 41.8249 67.7895 42.8372V48.7575ZM44.5789 42.4768C42.7507 42.4768 41.2631 43.9664 41.2631 45.7973C41.2631 47.6282 42.7506 49.1178 44.5789 49.1178C46.4073 49.1178 47.8948 47.6284 47.8948 45.7973C47.8948 43.9662 46.4073 42.4768 44.5789 42.4768ZM44.5789 46.9075C43.9694 46.9075 43.4737 46.4095 43.4737 45.7973C43.4737 45.1851 43.9694 44.6871 44.5789 44.6871C45.1884 44.6871 45.6842 45.1851 45.6842 45.7973C45.6842 46.4095 45.1884 46.9075 44.5789 46.9075Z" fill="black"/>
</svg>
