<svg width="70" height="70" viewBox="0 0 70 70" fill="none" xmlns="http://www.w3.org/2000/svg">
<path d="M68.9725 4.02734H1.02734V65.3971H68.9725V4.02734Z" fill="white"/>
<path opacity="0.08" d="M5.41095 4.02734H1.02734V65.3971H5.41095V4.02734Z" fill="black"/>
<path d="M68.9725 4.02734H1.02734V12.7944H68.9725V4.02734Z" fill="#D04848"/>
<path opacity="0.08" d="M5.41095 4.02734H1.02734V12.7944H5.41095V4.02734Z" fill="black"/>
<path d="M38.2868 58.8219H31.7115C29.8957 58.8219 28.4238 57.35 28.4238 55.5343C28.4238 53.7185 29.8957 52.2466 31.7115 52.2466H38.2868C40.1026 52.2466 41.5745 53.7185 41.5745 55.5343C41.5745 57.35 40.1026 58.8219 38.2868 58.8219Z" fill="#D04848"/>
<path opacity="0.1" d="M39.3828 56.6303H32.8074C30.9917 56.6303 29.5198 55.1584 29.5198 53.3426C29.5198 53.2522 29.5244 53.1628 29.5315 53.0742C28.8523 53.6766 28.4238 54.5552 28.4238 55.5343C28.4238 57.3501 29.8957 58.822 31.7115 58.822H38.2868C40.0122 58.822 41.426 57.4927 41.5627 55.8027C40.9824 56.3173 40.2194 56.6303 39.3828 56.6303Z" fill="black"/>
<path d="M52.5333 25.9453H17.4648V47.8631H52.5333V25.9453Z" fill="#EC9939"/>
<path d="M43.3457 37.5781L47.9952 54.6261L52.6446 49.9766L60.3938 57.7258L63.4934 54.6261L55.7442 46.877L60.3938 42.2275L43.3457 37.5781Z" fill="#D04848"/>
<path opacity="0.08" d="M52.5344 46.7668L49.2924 49.598L45.7509 38.234L43.3457 37.5781L47.9952 54.6261L52.6446 49.9766L60.3938 57.7258L61.9435 56.1759L52.5344 46.7668Z" fill="black"/>
<path d="M68.9724 3H1.02744C0.460058 3 0 3.46006 0 4.02744V65.3972C0 65.9646 0.460058 66.4247 1.02744 66.4247H68.9726C69.5399 66.4247 70 65.9646 70 65.3972V4.02744C69.9999 3.46006 69.5398 3 68.9724 3ZM2.05474 64.3698V13.822H8.9269C9.49428 13.822 9.95434 13.3619 9.95434 12.7945C9.95434 12.2271 9.49428 11.7671 8.9269 11.7671H2.05474V5.05474H67.945V11.7671H13.6757C13.1083 11.7671 12.6482 12.2271 12.6482 12.7945C12.6482 13.3619 13.1083 13.822 13.6757 13.822H67.945V64.3698H2.05474Z" fill="#4F4365"/>
<path d="M38.2869 51.2192H31.7116C29.3323 51.2192 27.3965 53.155 27.3965 55.5343C27.3965 57.9137 29.3323 59.8495 31.7116 59.8495H38.2869C40.6662 59.8495 42.602 57.9137 42.602 55.5343C42.602 53.155 40.6662 51.2192 38.2869 51.2192ZM38.2869 57.7946H31.7116C30.4653 57.7946 29.4514 56.7805 29.4514 55.5343C29.4514 54.2882 30.4653 53.2741 31.7116 53.2741H38.2869C39.5333 53.2741 40.5472 54.2882 40.5472 55.5343C40.5472 56.7805 39.5333 57.7946 38.2869 57.7946Z" fill="#4F4365"/>
<path d="M60.0685 9.43818H60.2054C60.7728 9.43818 61.2329 8.97812 61.2329 8.41074C61.2329 7.84336 60.7728 7.3833 60.2054 7.3833H60.0685C59.5011 7.3833 59.041 7.84336 59.041 8.41074C59.041 8.97812 59.5011 9.43818 60.0685 9.43818Z" fill="white"/>
<path d="M64.4513 9.43818H64.5883C65.1556 9.43818 65.6157 8.97812 65.6157 8.41074C65.6157 7.84336 65.1556 7.3833 64.5883 7.3833H64.4513C63.8839 7.3833 63.4238 7.84336 63.4238 8.41074C63.4238 8.97812 63.8839 9.43818 64.4513 9.43818Z" fill="white"/>
<path d="M55.547 9.43818H55.684C56.2513 9.43818 56.7114 8.97812 56.7114 8.41074C56.7114 7.84336 56.2513 7.3833 55.684 7.3833H55.547C54.9796 7.3833 54.5195 7.84336 54.5195 8.41074C54.5195 8.97812 54.9795 9.43818 55.547 9.43818Z" fill="white"/>
<path d="M57.196 46.8771L61.119 42.9541C61.6673 42.4058 61.4093 41.4399 60.6629 41.2363L53.5608 39.2993V25.9449C53.5608 25.3775 53.1007 24.9175 52.5334 24.9175H17.4649C16.8976 24.9175 16.4375 25.3775 16.4375 25.9449V47.8627C16.4375 48.4301 16.8976 48.8901 17.4649 48.8901H45.3648L47.0028 54.8964C47.2064 55.6429 48.1723 55.9008 48.7206 55.3525L52.6436 51.4295L59.6661 58.4521C60.0619 58.8479 60.7232 58.8479 61.119 58.4521L64.2186 55.3525C64.6198 54.9513 64.6198 54.3007 64.2186 53.8996L57.196 46.8771ZM18.4922 46.8354V26.9724H51.5059V38.7389L43.6148 36.5868C42.862 36.3815 42.148 37.0955 42.3533 37.8483L44.8043 46.8352H18.4922V46.8354ZM60.3926 56.2729L53.3701 49.2504C52.9743 48.8544 52.313 48.8546 51.9172 49.2504L48.5194 52.648L44.8089 39.0426L58.4143 42.7531L55.0167 46.1508C54.6155 46.5521 54.6155 47.2026 55.0167 47.6037L62.0393 54.6263L60.3926 56.2729Z" fill="#4F4365"/>
<path d="M17.4649 22.5891H39.3827C39.9501 22.5891 40.4101 22.129 40.4101 21.5616C40.4101 20.9942 39.9501 20.5342 39.3827 20.5342H17.4649C16.8976 20.5342 16.4375 20.9942 16.4375 21.5616C16.4375 22.129 16.8974 22.5891 17.4649 22.5891Z" fill="#4F4365"/>
<path d="M42.672 22.5891H53.6309C54.1983 22.5891 54.6584 22.129 54.6584 21.5616C54.6584 20.9942 54.1983 20.5342 53.6309 20.5342H42.672C42.1046 20.5342 41.6445 20.9942 41.6445 21.5616C41.6445 22.129 42.1045 22.5891 42.672 22.5891Z" fill="#4F4365"/>
</svg>
