<svg width="26" height="26" viewBox="0 0 26 26" fill="none" xmlns="http://www.w3.org/2000/svg">
<path fill-rule="evenodd" clip-rule="evenodd" d="M5.15843 2.59961H20.8416C21.4118 2.5996 21.9038 2.59958 22.3111 2.62736C22.7399 2.65663 23.1687 2.72098 23.5925 2.89648C24.548 3.2923 25.3074 4.05154 25.7031 5.00715C25.8786 5.43085 25.9429 5.85974 25.9723 6.28852C26 6.69575 26 7.18778 26 7.75802V18.2412C26 18.8114 26 19.3034 25.9723 19.7107C25.9429 20.1395 25.8786 20.5683 25.7031 20.9921C25.3074 21.9476 24.548 22.707 23.5925 23.1027C23.1687 23.2782 22.7399 23.3425 22.3111 23.3719C21.9038 23.3996 21.4118 23.3996 20.8416 23.3996H5.15841C4.58817 23.3996 4.09614 23.3996 3.68891 23.3719C3.26013 23.3425 2.83124 23.2782 2.40754 23.1027C1.45193 22.707 0.692692 21.9476 0.296868 20.9921C0.121368 20.5683 0.0570184 20.1395 0.0277554 19.7107C-2.55564e-05 19.3034 -1.24375e-05 18.8114 5.62469e-07 18.2412V7.75804C-1.24375e-05 7.18779 -2.55564e-05 6.69575 0.0277554 6.28852C0.0570184 5.85974 0.121368 5.43085 0.296868 5.00715C0.692692 4.05154 1.45193 3.2923 2.40754 2.89648C2.83124 2.72098 3.26013 2.65663 3.68891 2.62736C4.09614 2.59958 4.58818 2.5996 5.15843 2.59961ZM3.01269 5.56071C3.48548 5.02039 4.30677 4.96564 4.8471 5.43842L12.144 11.8231C12.6341 12.252 13.3659 12.252 13.856 11.8231L21.1529 5.43842C21.6932 4.96564 22.5146 5.02039 22.9873 5.56071C23.4601 6.10104 23.4053 6.92233 22.865 7.39511L15.5681 13.7799C14.0977 15.0665 11.9023 15.0665 10.4318 13.7799L3.13499 7.39511C2.59466 6.92233 2.5399 6.10104 3.01269 5.56071Z" fill="#EC9939"/>
</svg>
