<svg width="26" height="26" viewBox="0 0 26 26" fill="none" xmlns="http://www.w3.org/2000/svg">
<path d="M16.5297 17.5058L15.93 18.1371C15.93 18.1371 14.5048 19.6376 10.6147 15.542C6.72461 11.4464 8.14978 9.94592 8.14978 9.94592L8.52737 9.5484C9.45755 8.56913 9.54523 6.99693 8.73368 5.84915L7.07366 3.50126C6.06923 2.08066 4.12835 1.893 2.9771 3.10505L0.910788 5.28049C0.339946 5.88148 -0.0425897 6.66055 0.00380219 7.52479C0.122481 9.7358 1.06726 14.4929 6.33921 20.0433C11.9299 25.9292 17.1755 26.1631 19.3207 25.9514C19.9992 25.8844 20.5892 25.5186 21.0647 25.0179L22.9349 23.049C24.1972 21.7201 23.8413 19.4417 22.2261 18.512L19.711 17.0643C18.6505 16.4539 17.3585 16.6332 16.5297 17.5058Z" fill="#EC9939"/>
<path d="M13.5062 0.829147C13.5933 0.290861 14.1021 -0.0742842 14.6404 0.0128521C14.6737 0.0192369 14.781 0.0392733 14.8371 0.0517796C14.9495 0.0768055 15.1062 0.115312 15.3016 0.172222C15.6923 0.286017 16.2381 0.473493 16.8932 0.773816C18.2047 1.37512 19.9501 2.42697 21.7613 4.23815C23.5725 6.04933 24.6243 7.7947 25.2255 9.10626C25.5259 9.76135 25.7134 10.3072 25.8272 10.6979C25.884 10.8932 25.9226 11.0499 25.9476 11.1622C25.9601 11.2184 25.9693 11.2635 25.9757 11.2968L25.9833 11.3379C26.0703 11.8761 25.7085 12.4062 25.1702 12.4933C24.6335 12.5802 24.1279 12.2167 24.0386 11.6811C24.0359 11.6666 24.0282 11.628 24.0202 11.5915C24.0039 11.5186 23.9758 11.403 23.9313 11.2501C23.8422 10.9442 23.6875 10.4896 23.4305 9.92922C22.9174 8.80982 21.9946 7.26406 20.3649 5.63446C18.7354 4.00487 17.1896 3.08205 16.0702 2.56886C15.5098 2.31194 15.0553 2.15721 14.7493 2.06812C14.5965 2.02358 14.4043 1.97947 14.3313 1.96323C13.7955 1.87394 13.4193 1.36589 13.5062 0.829147Z" fill="#EC9939"/>
<path fill-rule="evenodd" clip-rule="evenodd" d="M13.804 5.37022C13.9538 4.84591 14.5002 4.5423 15.0246 4.6921L14.7534 5.64147C15.0246 4.6921 15.0246 4.6921 15.0246 4.6921L15.0266 4.69266L15.0329 4.69451L15.0431 4.69757L15.0692 4.70568C15.089 4.71202 15.1138 4.72029 15.1433 4.73078C15.2024 4.75177 15.2806 4.7816 15.3765 4.82267C15.5683 4.90487 15.8302 5.0318 16.1523 5.22231C16.7965 5.60366 17.6762 6.23711 18.7096 7.27049C19.743 8.30388 20.3764 9.18351 20.7577 9.82788C20.9482 10.1498 21.0751 10.4118 21.1574 10.6036C21.1985 10.6994 21.2284 10.7776 21.2493 10.8367C21.2598 10.8663 21.268 10.8911 21.2745 10.9109L21.2825 10.937L21.2855 10.9472L21.2868 10.9515L21.2874 10.9536C21.2874 10.9536 21.288 10.9555 20.3386 11.2267L21.288 10.9555C21.4378 11.4798 21.1341 12.0262 20.6099 12.176C20.09 12.3245 19.5483 12.0274 19.3931 11.5113L19.3882 11.4971C19.3813 11.4773 19.3668 11.4383 19.3424 11.3815C19.2937 11.2678 19.2054 11.0819 19.0585 10.8336C18.7649 10.3377 18.2348 9.58827 17.3132 8.6668C16.3918 7.74535 15.6424 7.21521 15.1465 6.92168C14.8982 6.77474 14.7123 6.6864 14.5986 6.63769C14.5417 6.61333 14.5027 6.59879 14.483 6.59178L14.4688 6.58692C13.9527 6.43173 13.6555 5.89008 13.804 5.37022Z" fill="#EC9939"/>
</svg>
