<svg width="143" height="50" viewBox="0 0 143 50" fill="none" xmlns="http://www.w3.org/2000/svg">
<path d="M69.6993 0H84.0702V50H69.6993V30.1429H49.9393V50H35.5684V37.5L39.6102 26.3889L35.5684 12.5V0H49.9393V19.1429H69.6993V0Z" fill="#FF9F3A"/>
<path d="M21.9041 0C29.4662 0 35.7766 2.40476 40.8354 7.21429C45.9464 11.9762 48.5018 17.9048 48.5018 25C48.5018 32.0952 45.9464 38.0476 40.8354 42.8571C35.7766 47.619 29.4662 50 21.9041 50H0V0H21.9041ZM21.9041 39C26.2327 39 29.7269 37.7381 32.3867 35.2143C35.0986 32.6429 36.4546 29.2381 36.4546 25C36.4546 20.7619 35.0986 17.381 32.3867 14.8571C29.7269 12.2857 26.2327 11 21.9041 11H12.5166V39H21.9041Z" fill="#524166"/>
<path d="M93.0121 12.3538C94.3524 12.3538 95.4708 12.7797 96.3675 13.6315C97.2733 14.4749 97.7262 15.5249 97.7262 16.7815C97.7262 18.0382 97.2733 19.0924 96.3675 19.9442C95.4708 20.7876 94.3524 21.2093 93.0121 21.2093H88.9912V12.3538H93.0121ZM93.0121 18.755C93.5759 18.755 94.0381 18.5737 94.3986 18.211C94.7683 17.84 94.9532 17.3634 94.9532 16.7815C94.9532 16.1996 94.7683 15.7273 94.3986 15.3646C94.0381 14.9936 93.5759 14.808 93.0121 14.808H91.9029V18.755H93.0121Z" fill="#524166"/>
<path d="M98.7672 12.3538H101.54V21.2093H98.7672V12.3538Z" fill="#524166"/>
<path d="M106.283 21.4117C105.229 21.4117 104.351 21.2135 103.648 20.8171C102.946 20.4123 102.474 19.8683 102.234 19.1851L104.605 17.9327C104.928 18.6833 105.511 19.0586 106.352 19.0586C106.981 19.0586 107.295 18.9068 107.295 18.6032C107.295 18.5189 107.272 18.443 107.225 18.3755C107.179 18.308 107.091 18.249 106.962 18.1984C106.833 18.1478 106.717 18.1098 106.615 18.0845C106.523 18.0508 106.357 18.0044 106.116 17.9454C105.876 17.8863 105.696 17.84 105.576 17.8062C103.644 17.2749 102.678 16.3261 102.678 14.9598C102.678 14.1502 102.997 13.4797 103.634 12.9484C104.281 12.417 105.127 12.1514 106.172 12.1514C106.994 12.1514 107.729 12.3285 108.376 12.6827C109.033 13.0369 109.513 13.5472 109.818 14.2134L107.517 15.4405C107.249 14.8164 106.805 14.5044 106.186 14.5044C105.945 14.5044 105.76 14.5508 105.631 14.6436C105.511 14.7279 105.451 14.8375 105.451 14.9725C105.451 15.158 105.557 15.3014 105.77 15.4026C105.991 15.5038 106.412 15.6345 107.031 15.7948C107.494 15.9213 107.873 16.0436 108.168 16.1616C108.464 16.2713 108.774 16.4315 109.097 16.6424C109.421 16.8448 109.661 17.1104 109.818 17.4394C109.985 17.7598 110.068 18.1394 110.068 18.5779C110.068 19.4803 109.726 20.1803 109.042 20.6779C108.367 21.1671 107.447 21.4117 106.283 21.4117Z" fill="#524166"/>
<path d="M117.49 12.3538V14.808H115.202V21.2093H112.429V14.808H110.141V12.3538H117.49Z" fill="#524166"/>
<path d="M123.244 21.2093L122.911 20.0707H120.111L119.778 21.2093H116.797L119.889 12.3538H123.133L126.225 21.2093H123.244ZM120.707 18.0466H122.315L121.511 15.3267L120.707 18.0466Z" fill="#524166"/>
<path d="M132.051 12.3538H134.824V21.2093H132.605L129.555 17.161V21.2093H126.782V12.3538H129L132.051 16.402V12.3538Z" fill="#524166"/>
<path d="M143 12.3538V14.808H140.712V21.2093H137.939V14.808H135.651V12.3538H143Z" fill="#524166"/>
<path d="M94.1213 28.1671H96.8943V37.0226H94.1213V33.7587H91.7642V37.0226H88.9912V28.1671H91.7642V31.3045H94.1213V28.1671Z" fill="#524166"/>
<path d="M101.053 34.6949H104.658V37.0226H98.2798V28.1671H104.588V30.4696H101.053V31.431H104.242V33.7081H101.053V34.6949Z" fill="#524166"/>
<path d="M108.54 34.5684H111.729V37.0226H105.767V28.1671H108.54V34.5684Z" fill="#524166"/>
<path d="M116.447 28.1671C117.454 28.1671 118.296 28.4581 118.97 29.04C119.645 29.6135 119.982 30.381 119.982 31.3425C119.982 32.3039 119.645 33.0756 118.97 33.6575C118.296 34.231 117.454 34.5178 116.447 34.5178H115.338V37.0226H112.565V28.1671H116.447ZM116.447 32.0635C116.659 32.0635 116.84 32.0003 116.988 31.8738C117.135 31.7388 117.209 31.5617 117.209 31.3425C117.209 31.1232 117.135 30.9503 116.988 30.8238C116.84 30.6888 116.659 30.6214 116.447 30.6214H115.338V32.0635H116.447Z" fill="#524166"/>
</svg>
