<svg width="18" height="18" viewBox="0 0 18 18" fill="none" xmlns="http://www.w3.org/2000/svg">
<path d="M11.4436 12.1194L11.0285 12.5564C11.0285 12.5564 10.0418 13.5952 7.34865 10.7598C4.6555 7.92442 5.64216 6.88564 5.64216 6.88564L5.90356 6.61043C6.54753 5.93248 6.60823 4.84403 6.0464 4.04941L4.89715 2.42395C4.20177 1.44046 2.85809 1.31054 2.06107 2.14965L0.630545 3.65573C0.235347 4.07179 -0.0294852 4.61115 0.00263228 5.20947C0.0847943 6.74017 0.738873 10.0335 4.38868 13.8761C8.25913 17.951 11.8908 18.1129 13.3759 17.9664C13.8456 17.92 14.2541 17.6667 14.5833 17.3201L15.878 15.957C16.7519 15.037 16.5055 13.4596 15.3873 12.816L13.6461 11.8137C12.9119 11.3911 12.0174 11.5153 11.4436 12.1194Z" fill="#4F4365"/>
<path d="M9.35043 0.574025C9.41077 0.201365 9.76302 -0.0514275 10.1357 0.00889758C10.1587 0.0133178 10.233 0.0271892 10.2718 0.0358474C10.3497 0.053173 10.4581 0.0798313 10.5934 0.119231C10.8639 0.198012 11.2418 0.327803 11.6953 0.535719C12.6033 0.952007 13.8116 1.68021 15.0655 2.9341C16.3194 4.188 17.0476 5.39633 17.4638 6.30433C17.6718 6.75786 17.8016 7.13572 17.8803 7.40621C17.9197 7.54147 17.9464 7.64995 17.9637 7.72771C17.9724 7.7666 17.9788 7.79782 17.9831 7.82089L17.9884 7.84933C18.0487 8.22195 17.7982 8.58888 17.4256 8.64921C17.054 8.70936 16.7039 8.45773 16.6421 8.08688C16.6402 8.07686 16.6349 8.05015 16.6294 8.02491C16.6181 7.97442 16.5986 7.89438 16.5678 7.78851C16.5061 7.57677 16.3991 7.26203 16.2211 6.87407C15.8659 6.09911 15.227 5.02897 14.0988 3.90078C12.9707 2.7726 11.9005 2.13373 11.1256 1.77844C10.7376 1.60057 10.4229 1.49346 10.2111 1.43177C10.1052 1.40094 9.97218 1.3704 9.92169 1.35916C9.55076 1.29734 9.29028 0.945618 9.35043 0.574025Z" fill="#4F4365"/>
<path fill-rule="evenodd" clip-rule="evenodd" d="M9.55659 3.71785C9.66031 3.35486 10.0386 3.14467 10.4016 3.24838L10.2139 3.90563C10.4016 3.24838 10.4016 3.24838 10.4016 3.24838L10.403 3.24876L10.4074 3.25005L10.4145 3.25216L10.4325 3.25778C10.4462 3.26217 10.4634 3.26789 10.4838 3.27516C10.5248 3.28968 10.5789 3.31034 10.6452 3.33877C10.778 3.39568 10.9594 3.48356 11.1823 3.61544C11.6284 3.87946 12.2374 4.318 12.9528 5.03341C13.6682 5.74884 14.1067 6.35781 14.3707 6.80391C14.5026 7.02676 14.5905 7.20818 14.6474 7.34096C14.6759 7.40731 14.6966 7.46141 14.7111 7.50234C14.7184 7.5228 14.724 7.53996 14.7285 7.55371L14.734 7.57174L14.7361 7.57881L14.737 7.58184L14.7374 7.58325C14.7374 7.58325 14.7379 7.58456 14.0806 7.77234L14.7379 7.58456C14.8416 7.94754 14.6313 8.32585 14.2684 8.42956C13.9085 8.53237 13.5335 8.32667 13.426 7.96934L13.4226 7.95951C13.4178 7.94582 13.4078 7.91886 13.3909 7.87948C13.3572 7.80079 13.296 7.67208 13.1943 7.5002C12.9911 7.15684 12.6241 6.63803 11.9861 6.00009C11.3482 5.36216 10.8293 4.99515 10.486 4.79193C10.3141 4.6902 10.1854 4.62905 10.1067 4.59533C10.0673 4.57846 10.0404 4.56839 10.0267 4.56354L10.0168 4.56017C9.65958 4.45274 9.45378 4.07775 9.55659 3.71785Z" fill="#4F4365"/>
</svg>
