<svg width="18" height="18" viewBox="0 0 18 18" fill="none" xmlns="http://www.w3.org/2000/svg">
<path fill-rule="evenodd" clip-rule="evenodd" d="M3.59253 5.4C3.59253 2.41766 6.01019 0 8.99253 0C11.9749 0 14.3925 2.41766 14.3925 5.4C14.3925 8.38233 11.9749 10.8 8.99253 10.8C6.01019 10.8 3.59253 8.38233 3.59253 5.4Z" fill="#4F4365"/>
<path fill-rule="evenodd" clip-rule="evenodd" d="M3.08037 13.4123C4.54281 12.7992 6.4935 12.6 8.99253 12.6C11.4864 12.6 13.4341 12.7984 14.8953 13.4083C16.4636 14.063 17.4262 15.1752 17.9394 16.7928C18.13 17.394 17.6791 18 17.0558 18H0.923657C0.302864 18 -0.145363 17.3967 0.0437361 16.7989C0.555359 15.1813 1.5146 14.0686 3.08037 13.4123Z" fill="#4F4365"/>
</svg>
