<svg width="18" height="18" viewBox="0 0 18 18" fill="none" xmlns="http://www.w3.org/2000/svg">
<path fill-rule="evenodd" clip-rule="evenodd" d="M16.1347 1.10748C17.1089 0.697282 18.1533 1.52108 17.9813 2.56406L15.9495 14.8832C15.7535 16.071 14.449 16.7525 13.3592 16.1606C12.4474 15.6653 11.0944 14.903 9.87513 14.1062C9.26628 13.7084 7.40195 12.4326 7.6311 11.5245C7.82704 10.748 10.9612 7.83058 12.7522 6.09555C13.4557 5.41402 13.1353 5.02029 12.3044 5.6478C10.2434 7.20445 6.93434 9.57116 5.84007 10.2372C4.87461 10.8249 4.37052 10.9252 3.76923 10.8249C2.67124 10.6419 1.65326 10.3586 0.822166 10.0141C-0.30112 9.54841 -0.246405 8.00475 0.821405 7.55521L16.1347 1.10748Z" fill="#4F4365"/>
</svg>
