<svg viewBox="0 0 56 56" fill="none" xmlns="http://www.w3.org/2000/svg">
<g filter="url(#filter0_d_13_661)">
<circle cx="24" cy="24" r="19.5" fill="url(#paint0_linear_13_661)" stroke="#F37827"/>
<path d="M31.48 19.27C28.84 15.2 23.45 13.99 19.27 16.52C15.2 19.05 13.88 24.55 16.52 28.62L16.74 28.95L15.86 32.25L19.16 31.37L19.49 31.59C20.92 32.36 22.46 32.8 24 32.8C25.65 32.8 27.3 32.36 28.73 31.48C32.8 28.84 34.01 23.45 31.48 19.27ZM29.17 27.74C28.73 28.4 28.18 28.84 27.41 28.95C26.97 28.95 26.42 29.17 24.22 28.29C22.35 27.41 20.81 25.98 19.71 24.33C19.05 23.56 18.72 22.57 18.61 21.58C18.61 20.7 18.94 19.93 19.49 19.38C19.71 19.16 19.93 19.05 20.15 19.05H20.7C20.92 19.05 21.14 19.05 21.25 19.49C21.47 20.04 22.02 21.36 22.02 21.47C22.13 21.58 22.13 21.8 22.02 21.91C22.13 22.13 22.02 22.35 21.91 22.46C21.8 22.57 21.69 22.79 21.58 22.9C21.36 23.01 21.25 23.23 21.36 23.45C21.8 24.11 22.35 24.77 22.9 25.32C23.56 25.87 24.22 26.31 24.99 26.64C25.21 26.75 25.43 26.75 25.54 26.53C25.65 26.31 26.2 25.76 26.42 25.54C26.64 25.32 26.75 25.32 26.97 25.43L28.73 26.31C28.95 26.42 29.17 26.53 29.28 26.64C29.39 26.97 29.39 27.41 29.17 27.74Z" fill="white"/>
</g>
<defs>
<filter id="filter0_d_13_661" x="0" y="0" width="56" height="56" filterUnits="userSpaceOnUse" color-interpolation-filters="sRGB">
<feFlood flood-opacity="0" result="BackgroundImageFix"/>
<feColorMatrix in="SourceAlpha" type="matrix" values="0 0 0 0 0 0 0 0 0 0 0 0 0 0 0 0 0 0 127 0" result="hardAlpha"/>
<feOffset dx="4" dy="4"/>
<feGaussianBlur stdDeviation="4"/>
<feComposite in2="hardAlpha" operator="out"/>
<feColorMatrix type="matrix" values="0 0 0 0 1 0 0 0 0 0.713726 0 0 0 0 0 0 0 0 0.16 0"/>
<feBlend mode="normal" in2="BackgroundImageFix" result="effect1_dropShadow_13_661"/>
<feBlend mode="normal" in="SourceGraphic" in2="effect1_dropShadow_13_661" result="shape"/>
</filter>
<linearGradient id="paint0_linear_13_661" x1="24" y1="4" x2="24" y2="44" gradientUnits="userSpaceOnUse">
<stop stop-color="#F9934C"/>
<stop offset="1" stop-color="#F27625"/>
</linearGradient>
</defs>
</svg>
