<svg viewBox="0 0 22 22" fill="none" xmlns="http://www.w3.org/2000/svg">
<path d="M18.48 6.27006C15.84 2.20006 10.45 0.990061 6.27 3.52006C2.2 6.05006 0.880002 11.5501 3.52 15.6201L3.74 15.9501L2.86 19.2501L6.16 18.3701L6.49 18.5901C7.92 19.3601 9.46 19.8001 11 19.8001C12.65 19.8001 14.3 19.3601 15.73 18.4801C19.8 15.8401 21.01 10.4501 18.48 6.27006V6.27006ZM16.17 14.7401C15.73 15.4001 15.18 15.8401 14.41 15.9501C13.97 15.9501 13.42 16.1701 11.22 15.2901C9.35 14.4101 7.81 12.9801 6.71 11.3301C6.05 10.5601 5.72 9.57006 5.61 8.58006C5.61 7.70006 5.94 6.93006 6.49 6.38006C6.71 6.16006 6.93 6.05006 7.15 6.05006H7.7C7.92 6.05006 8.14 6.05006 8.25 6.49006C8.47 7.04006 9.02 8.36006 9.02 8.47006C9.13 8.58006 9.13 8.80006 9.02 8.91006C9.13 9.13006 9.02 9.35006 8.91 9.46006C8.8 9.57006 8.69 9.79006 8.58 9.90006C8.36 10.0101 8.25 10.2301 8.36 10.4501C8.8 11.1101 9.35 11.7701 9.9 12.3201C10.56 12.8701 11.22 13.3101 11.99 13.6401C12.21 13.7501 12.43 13.7501 12.54 13.5301C12.65 13.3101 13.2 12.7601 13.42 12.5401C13.64 12.3201 13.75 12.3201 13.97 12.4301L15.73 13.3101C15.95 13.4201 16.17 13.5301 16.28 13.6401C16.39 13.9701 16.39 14.4101 16.17 14.7401V14.7401Z" fill="white"/>
</svg>
