<svg viewBox="0 0 24 25" fill="none" xmlns="http://www.w3.org/2000/svg">
<path d="M21.5533 4.50019C21.4625 4.49082 21.3709 4.49082 21.28 4.50019H2.61334C2.49371 4.50203 2.37486 4.51997 2.26001 4.55352L11.8933 14.1469L21.5533 4.50019Z" fill="white"/>
<path d="M22.54 5.42676L12.8333 15.0934C12.5835 15.3418 12.2456 15.4811 11.8933 15.4811C11.5411 15.4811 11.2032 15.3418 10.9533 15.0934L1.33335 5.50009C1.30378 5.60878 1.28809 5.72079 1.28668 5.83342V19.1668C1.28668 19.5204 1.42716 19.8595 1.67721 20.1096C1.92725 20.3596 2.26639 20.5001 2.62002 20.5001H21.2867C21.6403 20.5001 21.9794 20.3596 22.2295 20.1096C22.4795 19.8595 22.62 19.5204 22.62 19.1668V5.83342C22.6147 5.69453 22.5877 5.55731 22.54 5.42676ZM3.53335 19.1668H2.60668V18.2134L7.45335 13.4068L8.39335 14.3468L3.53335 19.1668ZM21.2733 19.1668H20.34L15.48 14.3468L16.42 13.4068L21.2667 18.2134L21.2733 19.1668Z" fill="white"/>
</svg>
