<svg width="18" height="18" viewBox="0 0 18 18" fill="none" xmlns="http://www.w3.org/2000/svg">
<path d="M12.215 4.27307H2.0625V15.2271H4.88822V11.6634H10.3028L12.7733 15.2271H15.9374L13.2132 11.647C14.0593 11.5156 14.6684 11.2035 15.0407 10.7109C15.4129 10.2182 15.5991 9.42988 15.5991 8.37885V7.5577C15.5991 6.9336 15.5315 6.44095 15.413 6.06323C15.2945 5.68551 15.0914 5.35701 14.8038 5.06142C14.4992 4.78223 14.1608 4.58517 13.7547 4.45382C13.3486 4.33888 12.8409 4.27307 12.215 4.27307ZM11.7581 9.24932H4.88822V6.68723H11.7581C12.1472 6.68723 12.4179 6.75285 12.5533 6.86788C12.6887 6.98282 12.7733 7.19629 12.7733 7.50838V8.42807C12.7733 8.75648 12.6887 8.96995 12.5533 9.08488C12.4179 9.19982 12.1473 9.24913 11.7581 9.24913V9.24932Z" stroke="white" stroke-width="2" stroke-linecap="round" stroke-linejoin="round"/>
<path d="M15.3684 4.08545C15.8859 4.08545 16.3057 3.66573 16.3057 3.14795C16.3057 2.63017 15.8859 2.21045 15.3684 2.21045C14.8505 2.21045 14.4307 2.63017 14.4307 3.14795C14.4307 3.66573 14.8505 4.08545 15.3684 4.08545Z" fill="white"/>
</svg>
