<svg viewBox="0 0 28 28" fill="none" xmlns="http://www.w3.org/2000/svg">
<path fill-rule="evenodd" clip-rule="evenodd" d="M14.056 20.1042H15.176C15.176 20.1042 15.512 20.0482 15.68 19.8802C15.848 19.7122 15.848 19.3762 15.848 19.3762C15.848 19.3762 15.848 17.9202 16.52 17.6962C17.192 17.4722 18.088 19.1522 18.984 19.7682C19.656 20.2722 20.16 20.1602 20.16 20.1602L22.624 20.1042C22.624 20.1042 23.912 20.0482 23.296 18.9842C23.24 18.9282 22.96 18.2562 21.448 16.8562C19.88 15.4002 20.104 15.6802 21.952 13.1602C23.072 11.6482 23.52 10.7522 23.408 10.3042C23.296 9.91217 22.456 10.0242 22.456 10.0242H19.656C19.656 10.0242 19.432 9.96817 19.32 10.0802C19.152 10.1922 19.096 10.3602 19.096 10.3602C19.096 10.3602 18.648 11.5362 18.088 12.5442C16.856 14.6162 16.352 14.7282 16.184 14.6162C15.736 14.3362 15.848 13.3842 15.848 12.7682C15.848 10.7522 16.184 9.91217 15.232 9.68817C14.952 9.63217 14.728 9.57617 13.944 9.57617C12.936 9.57617 12.096 9.57617 11.648 9.80017C11.312 9.96817 11.088 10.3042 11.256 10.3042C11.424 10.3042 11.872 10.4162 12.096 10.6962C12.32 11.2002 12.32 12.0402 12.32 12.0402C12.32 12.0402 12.488 14.4482 11.928 14.7282C11.536 14.9522 11.032 14.5042 9.91201 12.6002C9.35201 11.6482 8.90401 10.5282 8.90401 10.5282C8.90401 10.5282 8.84801 10.3042 8.68001 10.1922C8.51201 10.0802 8.23201 10.0242 8.23201 10.0242H5.60001C5.60001 10.0242 5.20801 10.0242 5.04001 10.1922C4.92801 10.3602 5.04001 10.6402 5.04001 10.6402C5.04001 10.6402 7.11201 15.4562 9.46401 17.9202C11.648 20.2722 14.056 20.1042 14.056 20.1042V20.1042Z" fill="white"/>
</svg>
