<svg viewBox="0 0 24 25" fill="none" xmlns="http://www.w3.org/2000/svg">
<path d="M21.6209 24C9.89076 24.0165 0.987638 15.0075 1.00001 3.37912C1.00001 2.61875 1.61601 2 2.37501 2H6.00501C6.68563 2 7.26451 2.5005 7.36488 3.17425C7.60428 4.78995 8.07427 6.36293 8.76051 7.84512L8.90213 8.15037C8.99727 8.35578 9.01773 8.58795 8.96 8.80684C8.90226 9.02572 8.76995 9.2176 8.58588 9.34937C7.46113 10.1524 7.03213 11.768 7.90801 13.0275C9.01074 14.6133 10.3871 15.9901 11.9725 17.0934C13.2334 17.9679 14.849 17.5389 15.6506 16.4155C15.7823 16.2309 15.9743 16.0981 16.1935 16.0401C16.4127 15.9821 16.6453 16.0025 16.851 16.0979L17.1549 16.2381C18.6371 16.9256 20.2101 17.3959 21.8258 17.6351C22.4995 17.7355 23 18.3144 23 18.9964V22.625C23 22.8057 22.9644 22.9846 22.8952 23.1515C22.826 23.3184 22.7246 23.47 22.5968 23.5977C22.469 23.7254 22.3172 23.8267 22.1502 23.8957C21.9833 23.9647 21.8043 24.0002 21.6236 24H21.6209Z" fill="white"/>
</svg>
